<svg xmlns="http://www.w3.org/2000/svg" width="35" height="35" fill="none" viewBox="0 0 35 35">
  <rect width="34.131" height="34.131" x=".131" fill="#000" rx="13.127"/>
  <path fill="#fff" d="M17.25 6.02a11.274 11.274 0 0 0-7.533 2.834 11.585 11.585 0 0 0-3.806 7.178 11.668 11.668 0 0 0 1.82 7.939 11.377 11.377 0 0 0 6.54 4.736c-.029-1.952-.033-4.71-.029-6.133h-2.719a.574.574 0 0 1-.409-.172.59.59 0 0 1-.169-.415v-3.07a.59.59 0 0 1 .171-.412.573.573 0 0 1 .407-.17h2.748c.033-2.534.076-3.149.076-3.149a4.271 4.271 0 0 1 1.221-2.991 4.164 4.164 0 0 1 1.352-.916 4.117 4.117 0 0 1 1.595-.322h2.606a.907.907 0 0 1 .65.273.935.935 0 0 1 .27.66v3.296h-2.09a1.247 1.247 0 0 0-.883.373c-.234.238-.367.56-.368.896v1.88h2.843a.51.51 0 0 1 .477.323c.026.063.04.132.04.2v3.173a.532.532 0 0 1-.152.37.514.514 0 0 1-.365.154H18.7V29a11.323 11.323 0 0 0 7.448-4.045 11.645 11.645 0 0 0 2.641-8.141 11.605 11.605 0 0 0-3.623-7.743 11.279 11.279 0 0 0-7.887-3.07l-.028.02Z"/>
</svg>
