<?xml version="1.0" encoding="UTF-8"?>
<svg version="1.1" xmlns="http://www.w3.org/2000/svg" width="599" height="827">
<path d="M0 0 C-1.6320136 4.07514773 -4.56102387 6.84398542 -7.5625 9.9375 C-20.86119027 24.04921064 -29.48149985 38.53621408 -29.2734375 58.34375 C-27.76487264 78.51541725 -12.33062756 94.38891759 2.6328125 106.41796875 C19.85657015 119.73857553 37.98877423 131.6354059 56.8125 142.5625 C57.781875 143.12694824 58.75125 143.69139648 59.75 144.27294922 C78.87221447 155.23482669 98.71528106 164.92852942 118.4375 174.75 C120.60621619 175.83183803 122.7748362 176.91386887 124.94335938 177.99609375 C126.00258102 178.52446335 127.06180267 179.05283295 128.15312195 179.59721375 C130.2327854 180.63501908 132.31206927 181.67358544 134.39094543 182.71296692 C138.89562623 184.96341023 143.40397192 187.20299239 147.93823242 189.39331055 C148.67707169 189.75326111 149.41591095 190.11321167 150.17713928 190.48406982 C151.50530787 191.13008111 152.83668389 191.7695667 154.17210388 192.40045166 C160.28176866 195.38589762 164.83026165 199.49078496 167 206 C167.46057903 212.21781691 166.30737052 215.40918095 162.1875 220.03515625 C143.98900834 236.90125835 119.83362162 247.5177079 98.06607056 258.99719238 C85.24121201 265.76521326 72.5356525 272.70696194 60 280 C59.1430957 280.49661133 58.28619141 280.99322266 57.40332031 281.50488281 C34.20234794 295.0044278 12.22382935 310.33412535 -8 328 C-9.35931641 329.17369141 -9.35931641 329.17369141 -10.74609375 330.37109375 C-43.70147211 359.31364065 -67.27963631 407.86078718 -69.16113281 451.75952148 C-69.20709008 455.98572001 -69.24665373 460.21104715 -69.25 464.4375 C-69.25067474 465.20077606 -69.25134949 465.96405212 -69.25204468 466.75045776 C-69.23650196 477.80074935 -68.84770619 488.26368835 -66 499 C-65.83371094 499.67659668 -65.66742188 500.35319336 -65.49609375 501.05029297 C-55.18380259 542.76733008 -24.83254383 582.48374603 3.83984375 613.62890625 C5.06285116 614.97133934 6.27685039 616.32250593 7.4597168 617.70043945 C12.36730758 623.41438471 17.60093961 628.74996013 22.9375 634.0625 C24.22043945 635.35124023 24.22043945 635.35124023 25.52929688 636.66601562 C30.52394189 641.65304104 35.62490759 646.42709672 41 651 C42.15272475 651.99695547 43.30508078 652.99433748 44.45703125 653.9921875 C45.57487432 654.953877 46.69337431 655.9148034 47.8125 656.875 C48.41650635 657.39328369 49.0205127 657.91156738 49.64282227 658.44555664 C53.20347465 661.49103081 56.79717005 664.48720274 60.4375 667.4375 C64.84054301 671.0064864 69.11308356 674.70305916 73.375 678.4375 C79.52460129 683.81044839 85.85767434 688.8459643 92.37304688 693.76416016 C102.49147522 701.4501572 112.34417975 709.48044046 122.18261719 717.51904297 C123.80707781 718.8427907 125.43825346 720.15828809 127.0703125 721.47265625 C133.6074507 726.75265249 139.83776713 732.29069721 146 738 C145.0831886 742.34820419 142.86567745 745.59309068 140.4375 749.25 C139.96006348 749.97727295 139.48262695 750.7045459 138.99072266 751.45385742 C137.92397321 753.07516192 136.85412937 754.69443328 135.78173828 756.31201172 C133.85715209 759.215505 131.94246203 762.12541054 130.02734375 765.03515625 C123.29191369 775.23490796 116.57829122 785.40083112 109 795 C103.00669559 794.88013391 103.00669559 794.88013391 100.54281616 792.72601318 C96.44088794 787.74044508 92.86246585 782.49259942 89.3515625 777.078125 C88.73534027 776.13749207 88.11911804 775.19685913 87.48422241 774.22772217 C85.52647698 771.23817148 83.57525201 768.2444434 81.625 765.25 C71.4024904 749.44198892 71.4024904 749.44198892 60.54003906 734.07421875 C58.4360263 731.24040575 56.49922885 728.32585719 54.5625 725.375 C50.24236996 718.83720889 45.85059234 712.3503533 41.4375 705.875 C36.18671526 698.16770778 30.94920742 690.45169342 25.73046875 682.72265625 C25.18593552 681.91622681 24.64140228 681.10979736 24.08036804 680.27893066 C21.38380702 676.28481947 18.68831601 672.28998969 15.99389648 668.29443359 C9.79781479 659.11103355 3.55783864 649.95948648 -2.73175049 640.83987427 C-4.9911136 637.5621722 -7.24521566 634.28085275 -9.5 631 C-12.14636112 627.14961386 -14.79304073 623.29945937 -17.44458008 619.45263672 C-36.48690007 591.8147511 -55.48933225 564.18370956 -72.6015625 535.29638672 C-85.97760802 512.73254639 -100.90725148 491.20352173 -115.7734375 469.60546875 C-127.38744953 452.73031287 -138.80658633 435.77991032 -149 418 C-149.5269043 417.08847168 -150.05380859 416.17694336 -150.59667969 415.23779297 C-163.06116383 393.52296022 -175.11655813 369.49873607 -178.51171875 344.43359375 C-179.01927918 340.86442877 -179.69191777 337.35210793 -180.375 333.8125 C-182.83132842 320.58353123 -184.06461621 307.12371505 -185.56689453 293.75952148 C-185.87118109 291.11819749 -186.19560904 288.48441495 -186.53930664 285.84838867 C-189.81678002 258.47010946 -184.00640257 230.62716941 -178.55712891 203.9050293 C-177.98217955 200.90707907 -177.51022194 197.90376651 -177.046875 194.88671875 C-176.14248125 189.36713828 -174.70192355 184.21670746 -172.875 178.9375 C-172.57005615 178.04264893 -172.2651123 177.14779785 -171.95092773 176.22583008 C-159.61509661 140.69500732 -140.6445198 106.73367418 -114.953125 79.1015625 C-113.19928358 77.21442913 -111.53451702 75.28212878 -109.875 73.3125 C-100.81037397 62.94088138 -90.8370367 53.48504247 -80 45 C-78.88289639 44.07334236 -77.76846457 43.14345754 -76.65625 42.2109375 C-67.00025979 34.17915995 -56.77335405 27.43698691 -46 21 C-45.10313477 20.46246094 -44.20626953 19.92492187 -43.28222656 19.37109375 C-40.53016949 17.73206504 -37.76794724 16.11203023 -35 14.5 C-34.16452637 14.00757813 -33.32905273 13.51515625 -32.46826172 13.0078125 C-27.29793184 10.04574023 -22.14359659 7.8146619 -16.51220703 5.87109375 C-12.39649994 4.44399531 -8.43053539 2.67872269 -4.43359375 0.953125 C-2 0 -2 0 0 0 Z " fill="#2CA3E8" transform="translate(193,24)"/>
<path d="M0 0 C2.30038511 0.9304225 4.60749863 1.81642627 6.93701172 2.67041016 C22.15573742 8.35490727 36.49158812 16.65775852 49.69091797 26.08837891 C50.26616211 26.49523926 50.84140625 26.90209961 51.43408203 27.32128906 C60.57731072 33.80514987 69.29267622 40.66625428 77.69091797 48.08837891 C78.20831543 48.5426123 78.72571289 48.9968457 79.25878906 49.46484375 C141.34441982 104.28492917 177.3705321 184.70318057 179.90966797 267.27587891 C180.70608019 307.47659567 171.26884782 348.13571681 155.69091797 385.08837891 C155.39282227 385.79897461 155.09472656 386.50957031 154.78759766 387.24169922 C143.42234608 413.84415689 126.54182933 438.50528897 109.96435547 462.08764648 C104.4622563 469.92693822 99.11628657 477.86207403 93.81591797 485.83837891 C93.42102173 486.43258636 93.02612549 487.02679382 92.6192627 487.63900757 C90.84975961 490.30285187 89.08224707 492.968004 87.31640625 495.63427734 C86.11090489 497.45429832 84.90185656 499.27197102 83.69091797 501.08837891 C78.63114131 501.23784269 74.16332223 500.73230419 69.22216797 499.65478516 C68.51777588 499.50200607 67.81338379 499.34922699 67.08764648 499.19181824 C64.78641655 498.68805492 62.48848767 498.17106769 60.19091797 497.65087891 C59.39403564 497.4719812 58.59715332 497.2930835 57.77612305 497.10876465 C23.14874309 489.29975055 -13.20169794 479.5072621 -45.30908203 464.08837891 C-46.11071777 463.70472168 -46.91235352 463.32106445 -47.73828125 462.92578125 C-57.91094005 457.98343229 -67.00659823 452.85430763 -75.30908203 445.08837891 C-76.44603516 444.08677734 -76.44603516 444.08677734 -77.60595703 443.06494141 C-84.17215044 437.00199639 -87.42163 431.16145668 -87.87158203 422.15087891 C-87.24805166 408.78710636 -77.9300094 400.34006115 -68.30908203 392.08837891 C-62.51907446 387.46215891 -56.42857027 383.26271525 -50.30908203 379.08837891 C-48.95202452 378.15520192 -47.59524331 377.22162296 -46.23876953 376.28759766 C-44.27318534 374.93648667 -42.30671064 373.58675784 -40.33764648 372.24072266 C-24.94689155 361.70393138 -10.0779436 350.47429277 4.69091797 339.08837891 C5.37202637 338.56469727 6.05313477 338.04101562 6.75488281 337.50146484 C15.04505383 331.11582159 23.04927075 324.45186592 30.94970703 317.59130859 C32.66345552 316.11208318 34.38935074 314.6486198 36.12060547 313.18994141 C62.84720354 290.63059762 102.57749658 256.56013284 105.00732422 219.04150391 C105.67425154 202.32699015 99.79505906 189.6096076 88.50341797 177.40087891 C67.13295868 157.71883062 38.23204562 147.80653986 11.8013916 136.95489502 C-22.86119244 122.72316659 -57.30038385 107.75414725 -90.00097656 89.3828125 C-92.0438267 88.23713962 -94.09412555 87.10694556 -96.14892578 85.98291016 C-109.96659365 78.30642801 -123.50840614 69.64891808 -135.30908203 59.08837891 C-136.08380859 58.39615234 -136.85853516 57.70392578 -137.65673828 56.99072266 C-148.62059774 46.62865309 -158.97656658 32.40288216 -159.62158203 16.83837891 C-159.21014802 3.51248834 -153.81617498 -8.13093794 -143.99658203 -17.09912109 C-114.20065167 -42.42338043 -30.43214532 -12.4588651 0 0 Z " fill="#2DA4E8" transform="translate(413.30908203125,26.91162109375)"/>
<path d="M0 0 C1.93037666 0.91438894 3.86073482 1.82881693 5.79101562 2.7434082 C7.49123261 3.54857487 9.19176048 4.35308536 10.89257812 5.15698242 C15.30425824 7.2432922 19.710793 9.33901727 24.10546875 11.4609375 C36.26814178 17.43406034 36.26814178 17.43406034 49 22 C49.60287842 22.17442627 50.20575684 22.34885254 50.8269043 22.52856445 C57.70956202 24.3042507 64.48588396 24.34535691 71.5625 24.3125 C73.43095581 24.30512817 73.43095581 24.30512817 75.3371582 24.29760742 C84.58094885 24.1802164 93.04002922 23.40016293 102 21 C102.69625488 20.81775879 103.39250977 20.63551758 104.10986328 20.44775391 C114.3809692 17.72712682 124.34872414 14.42223322 133.82421875 9.546875 C137.51841893 7.74748598 141.27347584 6.29699129 145.125 4.875 C145.82753906 4.61074219 146.53007812 4.34648437 147.25390625 4.07421875 C150.47704297 2.8739202 153.654156 1.79100367 157 1 C154.82548965 4.8279719 152.33295693 8.14605804 149.5625 11.5625 C124.25811172 43.81272802 109.7823743 84.5476631 109.75 125.4375 C109.74932526 126.20077606 109.74865051 126.96405212 109.74795532 127.75045776 C109.76349804 138.80074935 110.15229381 149.26368835 113 160 C113.16628906 160.67659668 113.33257812 161.35319336 113.50390625 162.05029297 C123.81619741 203.76733008 154.16745617 243.48374603 182.83984375 274.62890625 C184.06285116 275.97133934 185.27685039 277.32250593 186.4597168 278.70043945 C191.36730758 284.41438471 196.60093961 289.74996013 201.9375 295.0625 C202.79279297 295.92166016 203.64808594 296.78082031 204.52929688 297.66601562 C209.52394189 302.65304104 214.62490759 307.42709672 220 312 C221.15272475 312.99695547 222.30508078 313.99433748 223.45703125 314.9921875 C224.57487432 315.953877 225.69337431 316.9148034 226.8125 317.875 C227.41650635 318.39328369 228.0205127 318.91156738 228.64282227 319.44555664 C232.20347465 322.49103081 235.79717005 325.48720274 239.4375 328.4375 C243.84054301 332.0064864 248.11308356 335.70305916 252.375 339.4375 C258.52460129 344.81044839 264.85767434 349.8459643 271.37304688 354.76416016 C281.49147522 362.4501572 291.34417975 370.48044046 301.18261719 378.51904297 C302.80707781 379.8427907 304.43825346 381.15828809 306.0703125 382.47265625 C312.6074507 387.75265249 318.83776713 393.29069721 325 399 C324.0831886 403.34820419 321.86567745 406.59309068 319.4375 410.25 C318.96006348 410.97727295 318.48262695 411.7045459 317.99072266 412.45385742 C316.92397321 414.07516192 315.85412937 415.69443328 314.78173828 417.31201172 C312.85715209 420.215505 310.94246203 423.12541054 309.02734375 426.03515625 C302.29191369 436.23490796 295.57829122 446.40083112 288 456 C282.00669559 455.88013391 282.00669559 455.88013391 279.54281616 453.72601318 C275.44088794 448.74044508 271.86246585 443.49259942 268.3515625 438.078125 C267.73534027 437.13749207 267.11911804 436.19685913 266.48422241 435.22772217 C264.52647698 432.23817148 262.57525201 429.2444434 260.625 426.25 C250.4024904 410.44198892 250.4024904 410.44198892 239.54003906 395.07421875 C237.4360263 392.24040575 235.49922885 389.32585719 233.5625 386.375 C229.24236996 379.83720889 224.85059234 373.3503533 220.4375 366.875 C215.18671526 359.16770778 209.94920742 351.45169342 204.73046875 343.72265625 C204.18593552 342.91622681 203.64140228 342.10979736 203.08036804 341.27893066 C200.38380702 337.28481947 197.68831601 333.28998969 194.99389648 329.29443359 C188.79781479 320.11103355 182.55783864 310.95948648 176.26824951 301.83987427 C174.0088864 298.5621722 171.75478434 295.28085275 169.5 292 C166.85363888 288.14961386 164.20695927 284.29945937 161.55541992 280.45263672 C142.51309993 252.8147511 123.51066775 225.18370956 106.3984375 196.29638672 C93.02239198 173.73254639 78.09274852 152.20352173 63.2265625 130.60546875 C51.61255047 113.73031287 40.19341367 96.77991032 30 79 C29.4730957 78.08847168 28.94619141 77.17694336 28.40332031 76.23779297 C16.3527696 55.24408874 3.48652339 31.08816686 0.75 6.6875 C0.60046875 5.41261719 0.4509375 4.13773437 0.296875 2.82421875 C0.19890625 1.89222656 0.1009375 0.96023438 0 0 Z " fill="#43ACEB" transform="translate(14,363)"/>
<path d="M0 0 C6.32485051 0.41249025 11.21660162 3.53495026 16.625 6.5625 C17.61121338 7.10898193 18.59742676 7.65546387 19.61352539 8.21850586 C26.66340134 12.16287861 33.439419 16.27782357 40 21 C40.57234375 21.40541016 41.1446875 21.81082031 41.734375 22.22851562 C50.88094365 28.71374024 59.59909981 35.57552592 68 43 C68.77609619 43.6813501 68.77609619 43.6813501 69.56787109 44.37646484 C131.65350185 99.19655027 167.67961413 179.61480166 170.21875 262.1875 C171.01516222 302.38821676 161.57792985 343.04733791 146 380 C145.7019043 380.7105957 145.40380859 381.42119141 145.09667969 382.15332031 C133.73142811 408.75577798 116.85091136 433.41691006 100.2734375 456.99926758 C94.77133833 464.83855931 89.4253686 472.77369513 84.125 480.75 C83.73010376 481.34420746 83.33520752 481.93841492 82.92834473 482.55062866 C81.15884164 485.21447297 79.39132911 487.8796251 77.62548828 490.54589844 C76.41998692 492.36591942 75.21093859 494.18359211 74 496 C68.94022334 496.14946378 64.47240426 495.64392528 59.53125 494.56640625 C58.82685791 494.41362717 58.12246582 494.26084808 57.39672852 494.10343933 C55.09549858 493.59967601 52.7975697 493.08268878 50.5 492.5625 C49.70311768 492.38360229 48.90623535 492.20470459 48.08520508 492.02038574 C13.45782512 484.21137164 -22.89261591 474.41888319 -55 459 C-55.80163574 458.61634277 -56.60327148 458.23268555 -57.42919922 457.83740234 C-67.60185802 452.89505338 -76.6975162 447.76592872 -85 440 C-86.13695312 438.99839844 -86.13695312 438.99839844 -87.296875 437.9765625 C-93.86306841 431.91361749 -97.11254797 426.07307777 -97.5625 417.0625 C-96.93896963 403.69872746 -87.62092737 395.25168224 -78 387 C-72.20983835 382.3736569 -66.11861015 378.17585904 -60 374 C-58.52569252 372.9848819 -57.05172732 371.96926648 -55.578125 370.953125 C-53.51162127 369.53036391 -51.44393429 368.10954266 -49.37158203 366.6953125 C-44.81633573 363.58475331 -40.36971556 360.36832241 -36 357 C-35.34 357.33 -34.68 357.66 -34 358 C-35.11375 358.804375 -35.11375 358.804375 -36.25 359.625 C-39.17674961 362.15264739 -40.98621339 364.71827368 -43 368 C-40.69 368 -38.38 368 -36 368 C-36 368.66 -36 369.32 -36 370 C-35.2857486 370.04857651 -34.57149719 370.09715302 -33.83560181 370.14720154 C-28.4720078 370.54830589 -23.18830585 371.08102663 -17.88037109 371.95727539 C8.75560498 376.1948447 35.56182321 375.56728561 62.46044922 375.44952393 C67.72216119 375.43336206 72.98369598 375.4435168 78.24541283 375.45364285 C83.34648564 375.46060308 88.44745227 375.45281214 93.54851151 375.44038582 C95.96848773 375.43589791 98.38847543 375.43551102 100.80845261 375.43945122 C104.17511193 375.44237531 107.5411361 375.42581019 110.90771484 375.40405273 C112.37735184 375.41080521 112.37735184 375.41080521 113.87667847 375.41769409 C123.55626754 375.31423967 131.5555314 372.56802073 140 368 C143.35901372 366.25589672 146.32134463 364.84106009 150 364 C150.17668213 363.27369385 150.35336426 362.5473877 150.53540039 361.79907227 C152.08590515 355.50162978 153.7533316 349.25415782 155.54980469 343.02270508 C158.88524839 331.43029527 161.87225716 319.87497217 164 308 C164.14953125 307.20754883 164.2990625 306.41509766 164.453125 305.59863281 C177.87413533 232.56403998 152.42884896 151.34776361 110 92 C107.16649706 88.18812673 104.1152291 84.58389188 101 81 C100.10564114 79.92650049 99.2138583 78.85085128 98.32421875 77.7734375 C93.43225239 71.87162648 88.42230702 66.26643196 82.91796875 60.91796875 C81.29696416 59.29696416 79.85591433 57.67040153 78.4375 55.875 C75.27827104 52.14872994 71.71832631 49.15529898 68 46 C66.96492935 45.0925315 65.93116892 44.18356725 64.8984375 43.2734375 C48.61357549 28.99221648 30.99961645 17.607972 12.1875 6.9375 C11.53595947 6.56737793 10.88441895 6.19725586 10.21313477 5.81591797 C6.88385145 3.95459963 3.58145572 2.31661134 0 1 C0 0.67 0 0.34 0 0 Z " fill="#44AEEC" transform="translate(423,32)"/>
<path d="M0 0 C0.33 0 0.66 0 1 0 C1.31710938 1.2375 1.63421875 2.475 1.9609375 3.75 C13.64041793 47.75476807 38.43105913 87.07113672 64.80859375 123.7109375 C70.3481847 131.41455068 75.62550412 139.28439395 80.875 147.1875 C81.35256744 147.90490356 81.83013489 148.62230713 82.32217407 149.3614502 C90.79052204 162.08582835 99.18313346 174.86155331 107 188 C111.10958767 186.54955729 114.43258745 184.48889248 118 182 C118 180.02 118 178.04 118 176 C120.11253904 178.69967419 121.83784777 181.39399852 123.42578125 184.4296875 C123.88525146 185.29625977 124.34472168 186.16283203 124.81811523 187.05566406 C125.31126221 187.98604492 125.80440918 188.91642578 126.3125 189.875 C141.25944618 217.62013944 159.48768998 243.43529363 180.83984375 266.62890625 C182.06285116 267.97133934 183.27685039 269.32250593 184.4597168 270.70043945 C189.36730758 276.41438471 194.60093961 281.74996013 199.9375 287.0625 C200.79279297 287.92166016 201.64808594 288.78082031 202.52929688 289.66601562 C207.52394189 294.65304104 212.62490759 299.42709672 218 304 C219.15272475 304.99695547 220.30508078 305.99433748 221.45703125 306.9921875 C222.57487432 307.953877 223.69337431 308.9148034 224.8125 309.875 C225.41650635 310.39328369 226.0205127 310.91156738 226.64282227 311.44555664 C230.20347465 314.49103081 233.79717005 317.48720274 237.4375 320.4375 C241.84054301 324.0064864 246.11308356 327.70305916 250.375 331.4375 C256.52460129 336.81044839 262.85767434 341.8459643 269.37304688 346.76416016 C279.49147522 354.4501572 289.34417975 362.48044046 299.18261719 370.51904297 C300.80707781 371.8427907 302.43825346 373.15828809 304.0703125 374.47265625 C310.6074507 379.75265249 316.83776713 385.29069721 323 391 C322.0831886 395.34820419 319.86567745 398.59309068 317.4375 402.25 C316.96006348 402.97727295 316.48262695 403.7045459 315.99072266 404.45385742 C314.92397321 406.07516192 313.85412937 407.69443328 312.78173828 409.31201172 C310.85715209 412.215505 308.94246203 415.12541054 307.02734375 418.03515625 C300.29191369 428.23490796 293.57829122 438.40083112 286 448 C280.00669559 447.88013391 280.00669559 447.88013391 277.54281616 445.72601318 C273.44088794 440.74044508 269.86246585 435.49259942 266.3515625 430.078125 C265.73534027 429.13749207 265.11911804 428.19685913 264.48422241 427.22772217 C262.52647698 424.23817148 260.57525201 421.2444434 258.625 418.25 C248.4024904 402.44198892 248.4024904 402.44198892 237.54003906 387.07421875 C235.4360263 384.24040575 233.49922885 381.32585719 231.5625 378.375 C227.24236996 371.83720889 222.85059234 365.3503533 218.4375 358.875 C213.18671526 351.16770778 207.94920742 343.45169342 202.73046875 335.72265625 C202.18593552 334.91622681 201.64140228 334.10979736 201.08036804 333.27893066 C198.38380702 329.28481947 195.68831601 325.28998969 192.99389648 321.29443359 C186.79781479 312.11103355 180.55783864 302.95948648 174.26824951 293.83987427 C172.0088864 290.5621722 169.75478434 287.28085275 167.5 284 C164.85363888 280.14961386 162.20695927 276.29945937 159.55541992 272.45263672 C140.51309993 244.8147511 121.51066775 217.18370956 104.3984375 188.29638672 C91.02239198 165.73254639 76.09274852 144.20352173 61.2265625 122.60546875 C49.61255047 105.73031287 38.19341367 88.77991032 28 71 C27.4730957 70.08847168 26.94619141 69.17694336 26.40332031 68.23779297 C-1.78028834 19.13809967 -1.78028834 19.13809967 0 0 Z " fill="#8ECEF4" transform="translate(16,371)"/>
<path d="M0 0 C6.32485051 0.41249025 11.21660162 3.53495026 16.625 6.5625 C17.61121338 7.10898193 18.59742676 7.65546387 19.61352539 8.21850586 C26.66340134 12.16287861 33.439419 16.27782357 40 21 C40.57234375 21.40541016 41.1446875 21.81082031 41.734375 22.22851562 C50.88094365 28.71374024 59.59909981 35.57552592 68 43 C68.77609619 43.6813501 68.77609619 43.6813501 69.56787109 44.37646484 C131.65350185 99.19655027 167.67961413 179.61480166 170.21875 262.1875 C171.01516222 302.38821676 161.57792985 343.04733791 146 380 C145.7019043 380.7105957 145.40380859 381.42119141 145.09667969 382.15332031 C133.73142811 408.75577798 116.85091136 433.41691006 100.2734375 456.99926758 C94.77133833 464.83855931 89.4253686 472.77369513 84.125 480.75 C83.73010376 481.34420746 83.33520752 481.93841492 82.92834473 482.55062866 C81.15884164 485.21447297 79.39132911 487.8796251 77.62548828 490.54589844 C76.41998692 492.36591942 75.21093859 494.18359211 74 496 C68.94022334 496.14946378 64.47240426 495.64392528 59.53125 494.56640625 C58.82685791 494.41362717 58.12246582 494.26084808 57.39672852 494.10343933 C55.09549858 493.59967601 52.7975697 493.08268878 50.5 492.5625 C49.70311768 492.38360229 48.90623535 492.20470459 48.08520508 492.02038574 C13.21714198 484.15709384 -22.45285064 473.95409565 -55 459 C-52.01210704 457.63563051 -50.84609985 458.05771255 -47.71875 459.23046875 C-46.31021075 459.87785473 -44.9041938 460.53074189 -43.5 461.1875 C-6.63973492 477.46116915 33.59219235 487.24212607 73 495 C73.29495361 494.23196045 73.58990723 493.4639209 73.89379883 492.67260742 C75.1691671 489.59128839 76.8134735 487.07015392 78.6875 484.3125 C79.33074219 483.35988281 79.97398437 482.40726563 80.63671875 481.42578125 C82.46926862 478.75476484 84.32944901 476.10370444 86.19140625 473.453125 C102.01553743 450.87775958 117.53588427 428.07503923 131 404 C131.43199707 403.23461914 131.86399414 402.46923828 132.30908203 401.68066406 C148.48058019 372.84282006 158.03347751 340.41870279 164 308 C164.16226074 307.15373047 164.32452148 306.30746094 164.49169922 305.43554688 C178.03811683 232.57287546 152.30418022 151.17338201 110 92 C107.16649706 88.18812673 104.1152291 84.58389188 101 81 C100.10564114 79.92650049 99.2138583 78.85085128 98.32421875 77.7734375 C93.43225239 71.87162648 88.42230702 66.26643196 82.91796875 60.91796875 C81.29696416 59.29696416 79.85591433 57.67040153 78.4375 55.875 C75.27827104 52.14872994 71.71832631 49.15529898 68 46 C66.96492935 45.0925315 65.93116892 44.18356725 64.8984375 43.2734375 C48.61357549 28.99221648 30.99961645 17.607972 12.1875 6.9375 C11.53595947 6.56737793 10.88441895 6.19725586 10.21313477 5.81591797 C6.88385145 3.95459963 3.58145572 2.31661134 0 1 C0 0.67 0 0.34 0 0 Z " fill="#D6EDFA" transform="translate(423,32)"/>
<path d="M0 0 C0.33 0 0.66 0 1 0 C1.31710938 1.2375 1.63421875 2.475 1.9609375 3.75 C13.64041793 47.75476807 38.43105913 87.07113672 64.80859375 123.7109375 C70.34816139 131.41451827 75.62619999 139.28396406 80.875 147.1875 C81.35622314 147.91088562 81.83744629 148.63427124 82.33325195 149.37957764 C91.48544891 163.1423739 100.3948539 177.0197608 108.93896484 191.16918945 C117.29788499 205.00073968 126.07676259 218.52690546 135 232 C135.6997998 233.05993164 136.39959961 234.11986328 137.12060547 235.21191406 C144.15384573 245.86098431 151.2373604 256.46074391 158.64282227 266.85522461 C162.80086797 272.69276439 166.84982146 278.60041027 170.88378906 284.52416992 C173.76690467 288.75214833 176.66773585 292.96599532 179.60546875 297.15625 C188.56407373 309.93555577 197.27930794 322.85822582 205.91552734 335.85644531 C213.95400839 347.95289125 222.11251222 359.96335052 230.33035278 371.93862915 C238.58510673 383.97118821 246.77770682 396.04449754 254.93139648 408.14575195 C256.82786507 410.96030332 258.72538222 413.77414558 260.62304688 416.58789062 C261.24114227 417.50492767 261.85923767 418.42196472 262.49606323 419.36679077 C263.70438634 421.15893954 264.91361123 422.95048069 266.12380981 424.74136353 C268.62224683 428.4433567 271.11025254 432.14844993 273.52490234 435.90576172 C274.57025146 437.52442139 274.57025146 437.52442139 275.63671875 439.17578125 C276.20479248 440.07337158 276.77286621 440.97096191 277.3581543 441.89575195 C279.84628602 445.08463037 282.12837391 446.03209348 286 447 C286 447.33 286 447.66 286 448 C280.00669559 447.88013391 280.00669559 447.88013391 277.54281616 445.72601318 C273.44088794 440.74044508 269.86246585 435.49259942 266.3515625 430.078125 C265.73534027 429.13749207 265.11911804 428.19685913 264.48422241 427.22772217 C262.52647698 424.23817148 260.57525201 421.2444434 258.625 418.25 C248.4024904 402.44198892 248.4024904 402.44198892 237.54003906 387.07421875 C235.4360263 384.24040575 233.49922885 381.32585719 231.5625 378.375 C227.24236996 371.83720889 222.85059234 365.3503533 218.4375 358.875 C213.18671526 351.16770778 207.94920742 343.45169342 202.73046875 335.72265625 C202.18593552 334.91622681 201.64140228 334.10979736 201.08036804 333.27893066 C198.38380702 329.28481947 195.68831601 325.28998969 192.99389648 321.29443359 C186.79781479 312.11103355 180.55783864 302.95948648 174.26824951 293.83987427 C172.0088864 290.5621722 169.75478434 287.28085275 167.5 284 C164.85363888 280.14961386 162.20695927 276.29945937 159.55541992 272.45263672 C140.51309993 244.8147511 121.51066775 217.18370956 104.3984375 188.29638672 C91.02239198 165.73254639 76.09274852 144.20352173 61.2265625 122.60546875 C49.61255047 105.73031287 38.19341367 88.77991032 28 71 C27.4730957 70.08847168 26.94619141 69.17694336 26.40332031 68.23779297 C-1.78028834 19.13809967 -1.78028834 19.13809967 0 0 Z " fill="#E5F3FB" transform="translate(16,371)"/>
<path d="M0 0 C-0.78141357 0.38986084 -0.78141357 0.38986084 -1.57861328 0.78759766 C-21.28687199 10.69109425 -40.05308778 21.82381539 -57 36 C-58.05815803 36.86641784 -59.11675356 37.73230162 -60.17578125 38.59765625 C-72.56568763 48.81313122 -84.64306796 59.70624011 -95 72 C-95.67546875 72.78761719 -96.3509375 73.57523437 -97.046875 74.38671875 C-109.53384266 89.26626232 -120.4874403 105.07119681 -130 122 C-130.48098145 122.85352051 -130.96196289 123.70704102 -131.45751953 124.58642578 C-141.03195064 141.75603586 -147.71228665 159.58073718 -153.74316406 178.25 C-154.14486816 179.48943359 -154.14486816 179.48943359 -154.5546875 180.75390625 C-154.78655762 181.47908447 -155.01842773 182.2042627 -155.25732422 182.95141602 C-156.0231452 185.06384331 -156.95721934 187.01155218 -158 189 C-157.46744133 182.29919848 -156.12969945 176.46661279 -153.9375 170.125 C-153.62804443 169.21661377 -153.31858887 168.30822754 -152.99975586 167.37231445 C-140.6516009 131.78529622 -121.68563361 97.77789371 -95.953125 70.1015625 C-94.19928358 68.21442913 -92.53451702 66.28212878 -90.875 64.3125 C-81.81037397 53.94088138 -71.8370367 44.48504247 -61 36 C-59.88289639 35.07334236 -58.76846457 34.14345754 -57.65625 33.2109375 C-13.02984992 -3.90895498 -13.02984992 -3.90895498 0 0 Z " fill="#EAF5FC" transform="translate(174,33)"/>
<path d="M0 0 C0.66 0.33 1.32 0.66 2 1 C-0.3842096 4.57631441 -2.17940153 5.12574414 -6 7 C-10.8438306 9.89963254 -14.35129206 13.3681267 -17.96875 17.66796875 C-20.46187224 20.53026486 -23.08027783 23.24057159 -25.75 25.9375 C-27.13445312 27.34322266 -27.13445312 27.34322266 -28.546875 28.77734375 C-31 31 -31 31 -34 32 C-32.50957364 27.00707168 -29.6110477 24.07494726 -26 20.5 C-25.39784668 19.89849121 -24.79569336 19.29698242 -24.17529297 18.67724609 C-16.81309851 11.54564322 -8.46014301 5.74504078 0 0 Z " fill="#8ACCF2" transform="translate(363,406)"/>
<path d="M0 0 C0.66 0.33 1.32 0.66 2 1 C1.2575 1.53625 0.515 2.0725 -0.25 2.625 C-3.17674961 5.15264739 -4.98621339 7.71827368 -7 11 C-4.69 11 -2.38 11 0 11 C0 11.33 0 11.66 0 12 C-7.75 12.25 -7.75 12.25 -10 10 C-10.78375 10.66 -11.5675 11.32 -12.375 12 C-15 14 -15 14 -17 14 C-17.33 14.99 -17.66 15.98 -18 17 C-19.32 16.67 -20.64 16.34 -22 16 C-21.47567383 15.62190186 -20.95134766 15.24380371 -20.41113281 14.85424805 C-18.02380858 13.13238648 -15.6369005 11.40994891 -13.25 9.6875 C-12.425 9.09259766 -11.6 8.49769531 -10.75 7.88476562 C-9.55117188 7.01948242 -9.55117188 7.01948242 -8.328125 6.13671875 C-7.5949707 5.60780029 -6.86181641 5.07888184 -6.10644531 4.53393555 C-4.05654145 3.04117407 -2.02479221 1.52659729 0 0 Z " fill="#7AC5F0" transform="translate(387,389)"/>
<path d="M0 0 C3 1 3 1 4.38671875 3.31640625 C7.69288793 11.56693654 8.47687756 18.84481999 8.5 27.6875 C8.50604248 28.75105713 8.51208496 29.81461426 8.51831055 30.91040039 C8.39400525 38.53221311 8.39400525 38.53221311 6.47070312 40.81567383 C5.98537109 41.20650146 5.50003906 41.5973291 5 42 C5.15855469 40.85015625 5.31710937 39.7003125 5.48046875 38.515625 C6.9415692 26.7126324 6.7166742 16.08590579 2 5 C1.33253976 3.33365098 0.66563263 1.66707991 0 0 Z " fill="#9AD2F3" transform="translate(512,216)"/>
<path d="M0 0 C0.66 0.33 1.32 0.66 2 1 C-0.39384912 4.59077368 -2.16975325 5.08487663 -6 7 C-8.73256087 8.91672435 -11.37389714 10.94044218 -14 13 C-14.66 12.67 -15.32 12.34 -16 12 C-13.89674758 10.37380483 -11.79244271 8.74900468 -9.6875 7.125 C-9.09259766 6.66480469 -8.49769531 6.20460938 -7.88476562 5.73046875 C-5.29971995 3.73752851 -2.71700932 1.81133955 0 0 Z " fill="#C3E5F8" transform="translate(363,406)"/>
<path d="M0 0 C0.66 0.33 1.32 0.66 2 1 C-3.75 6 -3.75 6 -6 6 C-6.33 6.99 -6.66 7.98 -7 9 C-8.32 8.67 -9.64 8.34 -11 8 C-7.37 5.36 -3.74 2.72 0 0 Z " fill="#BDE2F7" transform="translate(376,397)"/>
<path d="M0 0 C1.32 0.33 2.64 0.66 4 1 C2.35 2.65 0.7 4.3 -1 6 C-1.33 4.68 -1.66 3.36 -2 2 C-1.34 1.34 -0.68 0.68 0 0 Z " fill="#7BC5F0" transform="translate(167,364)"/>
</svg>
